<svg id="_003-clock-circular-outline" data-name="003-clock-circular-outline" xmlns="http://www.w3.org/2000/svg" width="83.118" height="83.118" viewBox="0 0 83.118 83.118">
  <path id="Shape" d="M41.558,83.118a41.559,41.559,0,1,1,41.56-41.56A41.606,41.606,0,0,1,41.558,83.118Zm0-74.275A32.717,32.717,0,1,0,74.275,41.558,32.753,32.753,0,0,0,41.558,8.842Z" transform="translate(0 0)" fill="#5e934c"/>
  <path id="Path" d="M24.722,25.129H6.63V3.323a3.315,3.315,0,1,0-6.63,0V28.452a3.319,3.319,0,0,0,3.315,3.323H24.722a3.323,3.323,0,0,0,0-6.646Z" transform="translate(33.755 19.118)" fill="#5e934c"/>
</svg>
