<svg xmlns="http://www.w3.org/2000/svg" width="49.527" height="52.83" viewBox="0 0 49.527 52.83">
  <g id="Group_2240" data-name="Group 2240" transform="translate(0 0)">
    <path id="Path_12983" data-name="Path 12983" d="M868.416,332.147c2.935,8.871-2.159,14.57-11.354,18.175a67.526,67.526,0,0,0-8.461,4.662c-1.921,1.079-4.036,2.159-6.087,1.036-6.95-3.691-13.965-7.317-20.592-11.548-2.914-1.856-2.957-26.938,0-28.816,6.605-4.317,13.62-7.835,20.549-11.548a5.354,5.354,0,0,1,5.159.5c5.957,3.281,11.85,6.691,17.829,9.929a5.548,5.548,0,0,1,2.957,5.288C868.459,323.4,868.416,326.988,868.416,332.147Z" transform="translate(-819.72 -303.665)" fill="#5e934c"/>
    <path id="Path_12988" data-name="Path 12988" d="M853.235,314.751c-14.354,10.361-14.354,10.361-28.795,0C839.981,303.851,837.672,303.635,853.235,314.751Z" transform="translate(-814.251 -300.387)" fill="#f3f4f5"/>
  </g>
</svg>
