<svg xmlns="http://www.w3.org/2000/svg" width="88.33" height="81.124" viewBox="0 0 88.33 81.124">
  <g id="Accepted" transform="translate(-53.984 -50.922)">
    <g id="order" transform="translate(-258.012 26.998)">
      <g id="Group_9858" data-name="Group 9858" transform="translate(311.996 50)">
        <path id="Path_13030" data-name="Path 13030" d="M342.492,60.369,325.32,55.715a1.323,1.323,0,1,0-.642,2.568l17.172,4.654h.321a1.22,1.22,0,0,0,1.284-.963,1.288,1.288,0,0,0-.963-1.6Zm0,0" transform="translate(-304.931 -46.567)" fill="#6ba43a"/>
        <path id="Path_13031" data-name="Path 13031" d="M337.8,59.86l.161-.16a.157.157,0,0,1-.161.16Zm0,0" transform="translate(-296.387 -44.132)" fill="#6ba43a"/>
        <path id="Path_13032" data-name="Path 13032" d="M337.7,59.9v0Zm0,0" transform="translate(-296.448 -44.011)" fill="#6ba43a"/>
        <path id="Path_13033" data-name="Path 13033" d="M338.321,59.5c-.161,0-.161.16-.321.16.161,0,.161-.16.321-.16Zm0,0" transform="translate(-296.266 -44.253)" fill="#6ba43a"/>
        <path id="Path_13034" data-name="Path 13034" d="M348.891,100.516a1.324,1.324,0,0,1,.8-1.6l1.765-.642V63.924l-.8.321a1.2,1.2,0,0,1-1.6-.8v-.481h0V98.43l-27.283-6.9V55.9l-.642.16L319.2,57.826V92.331a1.4,1.4,0,0,0,.963,1.284l29.851,7.543h.321c-.8.16-1.284-.16-1.444-.642Zm0,0" transform="translate(-307.638 -46.431)" fill="#6ba43a"/>
        <g id="Group_9856" data-name="Group 9856" transform="translate(11.883 7.222)">
          <path id="Path_13035" data-name="Path 13035" d="M319.4,54.66c.16,0,.16-.16.321-.16-.161.16-.161.16-.321.16Zm0,0" transform="translate(-319.4 -54.5)" fill="#6ba43a"/>
          <path id="Path_13036" data-name="Path 13036" d="M361.569,54.9h0c0,.16.161.321.161.642a1.271,1.271,0,0,1-.8,1.284l-.963.321L366.7,69.023l-18.617,6.42-5.3-7.543a1.269,1.269,0,0,0-2.086,1.444l5.778,8.345a1.624,1.624,0,0,0,1.123.642h.481L358.68,74.64V72.875a1.381,1.381,0,0,1,1.284-1.284,1.266,1.266,0,0,1,1.284,1.284v.963l8.024-2.728a1.934,1.934,0,0,0,.8-.8.989.989,0,0,0-.161-1.123Zm0,0" transform="translate(-306.682 -54.258)" fill="#6ba43a"/>
        </g>
        <path id="Path_13037" data-name="Path 13037" d="M353.3,54.6c0,.16.161.16,0,0,.161.16,0,.16,0,0Zm0,0" transform="translate(-287.011 -47.217)" fill="#6ba43a"/>
        <path id="Path_13038" data-name="Path 13038" d="M353.1,54.5Zm0,0" transform="translate(-287.132 -47.278)" fill="#6ba43a"/>
        <path id="Path_13039" data-name="Path 13039" d="M359.343,85.056,339.6,91.8v1.765a.97.97,0,0,1-.481.963.5.5,0,0,1-.321.16l22.308-7.543a1.271,1.271,0,0,0,.8-1.284V66.6l-2.568.963Zm0,0" transform="translate(-295.782 -39.959)" fill="#6ba43a"/>
        <path id="Path_13040" data-name="Path 13040" d="M340.306,84.065V82.3l-1.765.642a1.2,1.2,0,0,0-.8,1.6,1.4,1.4,0,0,0,1.284.963h.481a.56.56,0,0,0,.321-.16,2.561,2.561,0,0,0,.482-1.284Zm0,0" transform="translate(-296.486 -30.462)" fill="#6ba43a"/>
        <path id="Path_13041" data-name="Path 13041" d="M352.884,65.2a1.381,1.381,0,0,0-1.284,1.284v1.765l2.568-.963v-.963a1.244,1.244,0,0,0-1.284-1.123Zm0,0" transform="translate(-288.039 -40.806)" fill="#6ba43a"/>
        <g id="Group_9857" data-name="Group 9857">
          <path id="Path_13042" data-name="Path 13042" d="M353.4,54.7a.56.56,0,0,1,.161.321.56.56,0,0,0-.161-.321Zm0,0" transform="translate(-286.951 -47.157)" fill="#6ba43a"/>
          <path id="Path_13043" data-name="Path 13043" d="M323.879,54.6h0L312.484,64.871a1.278,1.278,0,0,0-.321,1.6,1.624,1.624,0,0,0,1.123.642h.481l6.9-2.568a1.269,1.269,0,0,0-.8-2.407l-.481.16,4.012-3.691V55.723a1.457,1.457,0,0,1,.482-1.123Zm0,0" transform="translate(-311.996 -47.217)" fill="#6ba43a"/>
          <path id="Path_13044" data-name="Path 13044" d="M353.1,54.5c.161,0,.161.16.321.16a.5.5,0,0,1-.321-.16Zm0,0" transform="translate(-287.132 -47.278)" fill="#6ba43a"/>
          <path id="Path_13045" data-name="Path 13045" d="M321.3,58.506v.963l20.864-6.9,26.16,6.1-18.777,6.58h0c.16,0,.321-.16.481-.16a1.381,1.381,0,0,1,1.284,1.284v.963L372.5,59.95l-.481-.963a1.291,1.291,0,0,1,.481-1.765,2.036,2.036,0,0,1,.963-.16h0L342.329,50h-.642L319.7,57.222h0c.16,0,.321-.16.481-.16a1.578,1.578,0,0,1,1.123,1.444Zm0,0" transform="translate(-307.336 -50)" fill="#6ba43a"/>
        </g>
        <path id="Path_13046" data-name="Path 13046" d="M337.9,59.76a.157.157,0,0,0,.16-.16.157.157,0,0,1-.16.16Zm0,0" transform="translate(-296.327 -44.193)" fill="#6ba43a"/>
        <path id="Path_13047" data-name="Path 13047" d="M337.7,60.421v0Zm0,0" transform="translate(-296.448 -43.891)" fill="#6ba43a"/>
        <path id="Path_13048" data-name="Path 13048" d="M337.86,59.8l-.16.16c.16,0,.16,0,.16-.16Zm0,0" transform="translate(-296.448 -44.072)" fill="#6ba43a"/>
        <path id="Path_13049" data-name="Path 13049" d="M321.728,56.747v-.963a1.266,1.266,0,0,0-1.284-1.284.589.589,0,0,0-.481.16c-.161,0-.161.16-.321.16A1.624,1.624,0,0,0,319,55.944v2.889l1.926-1.765Zm0,0" transform="translate(-307.759 -47.278)" fill="#6ba43a"/>
        <path id="Path_13050" data-name="Path 13050" d="M338.984,59.5a.589.589,0,0,0-.481.16c-.161,0-.161.16-.321.16a.157.157,0,0,0-.16.16l-.161.16-.16.16v.963a1.2,1.2,0,0,0,1.6.8l.8-.321v-.963a1.069,1.069,0,0,0-1.123-1.284Zm0,0" transform="translate(-296.448 -44.253)" fill="#6ba43a"/>
        <path id="Path_13051" data-name="Path 13051" d="M352.742,54.66a1.291,1.291,0,0,0-.481,1.765l.481.963.963-.321a1.1,1.1,0,0,0,.8-1.284c0-.321-.16-.481-.16-.642s-.161-.16-.161-.321l-.161-.16c-.16,0-.16-.16-.321-.16h-.16c-.16,0-.642,0-.8.16Zm0,0" transform="translate(-287.737 -47.278)" fill="#6ba43a"/>
      </g>
    </g>
    <g id="Icon" transform="translate(98.942 50.922)">
      <g id="Path_13052" data-name="Path 13052" fill="#fff">
        <path d="M 21.68582153320312 42.87164306640625 C 18.82553100585938 42.87164306640625 16.05107116699219 42.31156158447266 13.43950176239014 41.20696258544922 C 10.91676139831543 40.13993072509766 8.65101146697998 38.6122932434082 6.70518159866333 36.66646194458008 C 4.75935173034668 34.72063064575195 3.231711626052856 32.45487976074219 2.164681434631348 29.93214225769043 C 1.060081481933594 27.32057189941406 0.5000015497207642 24.54611206054688 0.5000015497207642 21.68582153320312 C 0.5000015497207642 18.82553100585938 1.060081481933594 16.05107116699219 2.164681434631348 13.43950176239014 C 3.231711626052856 10.91676139831543 4.75935173034668 8.65101146697998 6.70518159866333 6.70518159866333 C 8.65101146697998 4.75935173034668 10.91676139831543 3.231711626052856 13.43950176239014 2.164681434631348 C 16.05107116699219 1.060081481933594 18.82553100585938 0.5000015497207642 21.68582153320312 0.5000015497207642 C 24.54611206054688 0.5000015497207642 27.32057189941406 1.060081481933594 29.93214225769043 2.164681434631348 C 32.45487976074219 3.231711626052856 34.72063064575195 4.75935173034668 36.66646194458008 6.70518159866333 C 38.6122932434082 8.65101146697998 40.13993072509766 10.91676139831543 41.20696258544922 13.43950176239014 C 42.31156158447266 16.05107116699219 42.87164306640625 18.82553100585938 42.87164306640625 21.68582153320312 C 42.87164306640625 24.54611206054688 42.31156158447266 27.32057189941406 41.20696258544922 29.93214225769043 C 40.13993072509766 32.45487976074219 38.6122932434082 34.72063064575195 36.66646194458008 36.66646194458008 C 34.72063064575195 38.6122932434082 32.45487976074219 40.13993072509766 29.93214225769043 41.20696258544922 C 27.32057189941406 42.31156158447266 24.54611206054688 42.87164306640625 21.68582153320312 42.87164306640625 Z" stroke="none"/>
        <path d="M 21.68582153320312 1 C 18.8928108215332 1 16.18388175964355 1.546791076660156 13.6342716217041 2.62518310546875 C 11.171142578125 3.666999816894531 8.958812713623047 5.158660888671875 7.058742523193359 7.058742523193359 C 5.158660888671875 8.958812713623047 3.666999816894531 11.171142578125 2.62518310546875 13.6342716217041 C 1.546791076660156 16.18388175964355 1 18.8928108215332 1 21.68582153320312 C 1 24.47883224487305 1.546791076660156 27.1877613067627 2.62518310546875 29.73737144470215 C 3.666999816894531 32.20050048828125 5.158660888671875 34.4128303527832 7.058742523193359 36.31290054321289 C 8.958812713623047 38.21298217773438 11.171142578125 39.70464324951172 13.6342716217041 40.7464599609375 C 16.18388175964355 41.82485198974609 18.8928108215332 42.37164306640625 21.68582153320312 42.37164306640625 C 24.47883224487305 42.37164306640625 27.1877613067627 41.82485198974609 29.73737144470215 40.7464599609375 C 32.20050048828125 39.70464324951172 34.4128303527832 38.21298217773438 36.31290054321289 36.31290054321289 C 38.21298217773438 34.4128303527832 39.70464324951172 32.20050048828125 40.7464599609375 29.73737144470215 C 41.82485198974609 27.1877613067627 42.37164306640625 24.47883224487305 42.37164306640625 21.68582153320312 C 42.37164306640625 18.8928108215332 41.82485198974609 16.18388175964355 40.7464599609375 13.6342716217041 C 39.70464324951172 11.171142578125 38.21298217773438 8.958812713623047 36.31290054321289 7.058742523193359 C 34.4128303527832 5.158660888671875 32.20050048828125 3.666999816894531 29.73737144470215 2.62518310546875 C 27.1877613067627 1.546791076660156 24.47883224487305 1 21.68582153320312 1 M 21.68582153320312 0 C 33.66257095336914 0 43.37164306640625 9.709072113037109 43.37164306640625 21.68582153320312 C 43.37164306640625 33.66257095336914 33.66257095336914 43.37164306640625 21.68582153320312 43.37164306640625 C 9.709072113037109 43.37164306640625 0 33.66257095336914 0 21.68582153320312 C 0 9.709072113037109 9.709072113037109 0 21.68582153320312 0 Z" stroke="none" fill="#5e934c"/>
      </g>
      <path id="check" d="M23.639,6l-13.5,13.5L4,13.365" transform="translate(7.677 9.475)" fill="none" stroke="#5e934c" stroke-linecap="round" stroke-linejoin="round" stroke-width="4"/>
    </g>
  </g>
</svg>
