<svg id="noun_date_2149188" xmlns="http://www.w3.org/2000/svg" width="26.74" height="24.781" viewBox="0 0 26.74 24.781">
  <g id="Group_2195" data-name="Group 2195">
    <path id="Path_2042" data-name="Path 2042" d="M35.616,31.973H33.863V30.931a.931.931,0,0,0-1.863,0v1.041H19.123V30.931a.931.931,0,0,0-1.863,0v1.041H15.123A3.115,3.115,0,0,0,12,35.079V51.644a3.125,3.125,0,0,0,3.123,3.123H35.616a3.129,3.129,0,0,0,3.123-3.123V35.079A3.111,3.111,0,0,0,35.616,31.973Zm1.26,19.671a1.26,1.26,0,0,1-1.26,1.26H15.123a1.26,1.26,0,0,1-1.26-1.26V39.808H36.877Zm-23.014-13.7V35.079a1.247,1.247,0,0,1,1.26-1.244H17.26v.7a.931.931,0,0,0,1.863,0v-.7H32v.7a.931.931,0,1,0,1.863,0v-.7h1.753a1.247,1.247,0,0,1,1.26,1.244v2.866Z" transform="translate(-12 -30)" fill="#97a3b5"/>
    <rect id="Rectangle_1921" data-name="Rectangle 1921" width="24" height="2" transform="translate(1 13)" fill="#97a3b5"/>
    <rect id="Rectangle_1922" data-name="Rectangle 1922" width="24" height="2" transform="translate(1 18)" fill="#97a3b5"/>
    <path id="Path_12861" data-name="Path 12861" d="M0,.066,16.679-.062l-.011,2L-.006,2.066Z" transform="translate(16.647 8.104) rotate(91)" fill="#97a3b5"/>
    <path id="Path_12862" data-name="Path 12862" d="M0,.066,16.679-.062l-.011,2L-.006,2.066Z" transform="translate(11.648 8.016) rotate(91)" fill="#97a3b5"/>
  </g>
</svg>
