<svg xmlns="http://www.w3.org/2000/svg" width="15" height="15" viewBox="0 0 15 15"><defs><style>.a{fill:#6d922c;}</style></defs><g transform="translate(15 15) rotate(180)"><g transform="translate(13.75 13.75) rotate(180)"><path class="a" d="M0,6A5.964,5.964,0,0,1,2.341,1.244a.436.436,0,0,1,.532.692A5.128,5.128,0,1,0,6,.873a5.187,5.187,0,0,0-.779.058A.436.436,0,0,1,5.088.069,6,6,0,1,1,0,6ZM5.681,7.544,3.6,5.452a.45.45,0,1,1,.637-.636L6,6.589,7.764,4.817a.45.45,0,0,1,.638.636L6.318,7.544a.448.448,0,0,1-.637,0Z" transform="translate(-0.25 12.75) rotate(-90)"/></g></g></svg>