<svg xmlns="http://www.w3.org/2000/svg" width="81.801" height="83.789" viewBox="0 0 81.801 83.789">
  <g id="Group_9855" data-name="Group 9855" transform="translate(-308.6 -230)">
    <g id="Group_9851" data-name="Group 9851" transform="translate(308.6 230)">
      <g id="Group_9850" data-name="Group 9850">
        <path id="Path_13019" data-name="Path 13019" d="M385.967,298.346H364.714a.917.917,0,1,1,0-1.835h21.253a2.415,2.415,0,0,0,2.446-2.446V234.587a2.415,2.415,0,0,0-2.446-2.446H313.034a2.415,2.415,0,0,0-2.446,2.446v59.478a2.415,2.415,0,0,0,2.446,2.446h17.431a.917.917,0,1,1,0,1.835H313.034a4.437,4.437,0,0,1-4.434-4.434V234.434A4.437,4.437,0,0,1,313.034,230h72.933a4.437,4.437,0,0,1,4.434,4.434v59.478A4.437,4.437,0,0,1,385.967,298.346Z" transform="translate(-308.6 -230)" fill="#243f21"/>
        <path id="Path_13020" data-name="Path 13020" d="M389.278,240.035H309.617a.917.917,0,0,1,0-1.835h79.661a.881.881,0,0,1,.917.917C390.349,239.576,389.89,240.035,389.278,240.035Z" transform="translate(-308.547 -225.662)" fill="#243f21"/>
      </g>
      <path id="Path_13021" data-name="Path 13021" d="M317.71,236.035h-4.893a.917.917,0,1,1,0-1.835h4.893a.881.881,0,0,1,.917.917C318.78,235.576,318.322,236.035,317.71,236.035Z" transform="translate(-306.854 -227.778)" fill="#243f21"/>
      <path id="Path_13022" data-name="Path 13022" d="M324.11,236.035h-4.893a.917.917,0,1,1,0-1.835h4.893a.881.881,0,0,1,.917.917C325.18,235.576,324.722,236.035,324.11,236.035Z" transform="translate(-303.469 -227.778)" fill="#243f21"/>
      <path id="Path_13023" data-name="Path 13023" d="M330.61,236.035h-4.893a.917.917,0,1,1,0-1.835h4.893a.881.881,0,0,1,.917.917A.987.987,0,0,1,330.61,236.035Z" transform="translate(-300.03 -227.778)" fill="#243f21"/>
    </g>
    <g id="Group_9854" data-name="Group 9854" transform="translate(332.452 252.629)">
      <path id="Path_13024" data-name="Path 13024" d="M328.328,301.516h0a.86.86,0,0,1-.917-1.07l.153-3.975a12.436,12.436,0,0,1-2.905-7.645L324.2,271.4c0-1.835,1.376-3.211,3.517-3.364a2.515,2.515,0,0,1,1.529.306,4.537,4.537,0,0,1,4.128-2.905h0a4.373,4.373,0,0,1,2.6.764,4.146,4.146,0,0,1,3.975-2.294,3.982,3.982,0,0,1,2.293.612l.153-7.8a3.839,3.839,0,0,1,3.823-3.517h0c1.988,0,4.128,1.376,4.128,3.364v19.571l1.529-2.6a2.886,2.886,0,0,1,1.988-1.529,3.882,3.882,0,0,1,2.905.306,3.505,3.505,0,0,1,1.529,4.74l-8.562,15.29a12.136,12.136,0,0,1-5.5,6.269v1.529a.86.86,0,0,1-1.07.917c-.612,0-.917-.459-.917-1.07v-2.141a1.09,1.09,0,0,1,.459-.917,9.825,9.825,0,0,0,5.046-5.5v-.153l8.715-15.443a1.606,1.606,0,0,0-.764-2.141,1.486,1.486,0,0,0-1.376-.153,1.016,1.016,0,0,0-.765.612l-3.364,5.963a.79.79,0,0,1-1.07.459.969.969,0,0,1-.765-.917V256.258c0-.765-1.07-1.376-2.141-1.376a1.833,1.833,0,0,0-1.835,1.529l-.153,18.348a.881.881,0,0,1-.917.917h0c-.612,0-.917-.459-.917-1.07l.153-7.645c0-.764-1.07-1.376-2.293-1.376h0a2.821,2.821,0,0,0-1.835.765,1.3,1.3,0,0,0-.459.764v7.645a.881.881,0,0,1-.917.917h0a.881.881,0,0,1-.917-.917V268.8c0-.765-.917-1.529-2.294-1.529a2.325,2.325,0,0,0-2.294,1.988v1.682l.153,3.823a1.022,1.022,0,0,1-.917,1.07h0a.987.987,0,0,1-.917-.917l-.153-3.975a.794.794,0,0,0-.306-.612,2.21,2.21,0,0,0-1.07-.306,1.406,1.406,0,0,0-1.529,1.376l.459,17.431a9.746,9.746,0,0,0,2.6,6.728,1.168,1.168,0,0,1,.306.765l-.153,4.281C329.246,301.058,328.787,301.516,328.328,301.516Z" transform="translate(-324.2 -240.356)" fill="#558916"/>
      <g id="Group_9853" data-name="Group 9853" transform="translate(5.046)">
        <path id="Path_13025" data-name="Path 13025" d="M338.717,253.21a.881.881,0,0,1-.917-.917v-6.575a.881.881,0,0,1,.917-.917.987.987,0,0,1,.917.917v6.575C339.788,252.751,339.329,253.21,338.717,253.21Z" transform="translate(-322.051 -244.8)" fill="#558916"/>
        <path id="Path_13026" data-name="Path 13026" d="M336.071,254.388c-.306,0-.459-.153-.764-.306l-4.587-4.587a.973.973,0,0,1,1.376-1.376l4.587,4.587a.857.857,0,0,1,0,1.376A.794.794,0,0,1,336.071,254.388Z" transform="translate(-325.979 -243.226)" fill="#558916"/>
        <path id="Path_13027" data-name="Path 13027" d="M334.992,256.135h-6.575a.917.917,0,1,1,0-1.835h6.575a.881.881,0,0,1,.917.917A.987.987,0,0,1,334.992,256.135Z" transform="translate(-327.5 -239.775)" fill="#558916"/>
        <g id="Group_9852" data-name="Group 9852" transform="translate(22.132 4.549)">
          <path id="Path_13028" data-name="Path 13028" d="M343.083,254.388c-.306,0-.459-.153-.764-.306a.857.857,0,0,1,0-1.376l4.587-4.587a.973.973,0,0,1,1.376,1.376l-4.587,4.587A.794.794,0,0,1,343.083,254.388Z" transform="translate(-341.975 -247.775)" fill="#558916"/>
          <path id="Path_13029" data-name="Path 13029" d="M351.292,256.135h-6.575a.917.917,0,0,1,0-1.835h6.575a.881.881,0,0,1,.917.917C352.362,255.676,351.9,256.135,351.292,256.135Z" transform="translate(-341.01 -244.323)" fill="#558916"/>
        </g>
      </g>
    </g>
  </g>
</svg>
