<svg xmlns="http://www.w3.org/2000/svg" width="68.027" height="62.477" viewBox="0 0 68.027 62.477">
  <g id="Rejected" transform="translate(-53.984 -50.922)">
    <g id="order" transform="translate(53.984 71.004)">
      <g id="Group_9858" data-name="Group 9858">
        <path id="Path_13030" data-name="Path 13030" d="M338.167,59.29l-13.225-3.584a1.019,1.019,0,1,0-.494,1.978l13.225,3.584h.247a.94.94,0,0,0,.989-.742.992.992,0,0,0-.742-1.236Zm0,0" transform="translate(-309.24 -48.661)" fill="#6ba43a"/>
        <path id="Path_13031" data-name="Path 13031" d="M337.8,59.824l.124-.124a.121.121,0,0,1-.124.124Zm0,0" transform="translate(-305.906 -47.711)" fill="#6ba43a"/>
        <path id="Path_13032" data-name="Path 13032" d="M337.7,59.9v0Zm0,0" transform="translate(-305.93 -47.664)" fill="#6ba43a"/>
        <path id="Path_13033" data-name="Path 13033" d="M338.247,59.5c-.124,0-.124.124-.247.124.124,0,.124-.124.247-.124Zm0,0" transform="translate(-305.859 -47.758)" fill="#6ba43a"/>
        <path id="Path_13034" data-name="Path 13034" d="M342.066,90.261a1.02,1.02,0,0,1,.618-1.236l1.36-.494V62.08l-.618.247a.923.923,0,0,1-1.236-.618v-.371h0V88.654l-21.012-5.315V55.9l-.494.124-1.483,1.36V83.957a1.077,1.077,0,0,0,.742.989l22.99,5.809h.247c-.618.124-.989-.124-1.112-.494Zm0,0" transform="translate(-310.296 -48.608)" fill="#6ba43a"/>
        <g id="Group_9856" data-name="Group 9856" transform="translate(9.151 5.562)">
          <path id="Path_13035" data-name="Path 13035" d="M319.4,54.624c.124,0,.124-.124.247-.124-.124.124-.124.124-.247.124Zm0,0" transform="translate(-319.4 -54.5)" fill="#6ba43a"/>
          <path id="Path_13036" data-name="Path 13036" d="M356.709,54.9h0c0,.124.124.247.124.494a.979.979,0,0,1-.618.989l-.742.247,5.191,9.146-14.338,4.944-4.079-5.809a.977.977,0,0,0-1.607,1.112l4.45,6.427a1.251,1.251,0,0,0,.865.494h.371l8.158-2.843v-1.36a1.063,1.063,0,0,1,.989-.989.975.975,0,0,1,.989.989v.742l6.18-2.1a1.489,1.489,0,0,0,.618-.618.761.761,0,0,0-.124-.865Zm0,0" transform="translate(-314.438 -54.406)" fill="#6ba43a"/>
        </g>
        <path id="Path_13037" data-name="Path 13037" d="M353.3,54.6c0,.124.124.124,0,0,.124.124,0,.124,0,0Zm0,0" transform="translate(-302.248 -48.914)" fill="#6ba43a"/>
        <path id="Path_13038" data-name="Path 13038" d="M353.1,54.5Zm0,0" transform="translate(-302.295 -48.938)" fill="#6ba43a"/>
        <path id="Path_13039" data-name="Path 13039" d="M354.621,80.814l-15.2,5.191v1.36a.747.747,0,0,1-.371.742.383.383,0,0,1-.247.124l17.18-5.809a.979.979,0,0,0,.618-.989V66.6l-1.978.742Zm0,0" transform="translate(-305.67 -46.082)" fill="#6ba43a"/>
        <path id="Path_13040" data-name="Path 13040" d="M339.693,83.66V82.3l-1.36.494a.923.923,0,0,0-.618,1.236,1.077,1.077,0,0,0,.989.742h.371a.432.432,0,0,0,.247-.124,1.972,1.972,0,0,0,.371-.989Zm0,0" transform="translate(-305.945 -42.377)" fill="#6ba43a"/>
        <path id="Path_13041" data-name="Path 13041" d="M352.589,65.2a1.063,1.063,0,0,0-.989.989v1.36l1.978-.742v-.742a.958.958,0,0,0-.989-.865Zm0,0" transform="translate(-302.649 -46.413)" fill="#6ba43a"/>
        <g id="Group_9857" data-name="Group 9857">
          <path id="Path_13042" data-name="Path 13042" d="M353.4,54.7a.432.432,0,0,1,.124.247.432.432,0,0,0-.124-.247Zm0,0" transform="translate(-302.225 -48.891)" fill="#6ba43a"/>
          <path id="Path_13043" data-name="Path 13043" d="M321.147,54.6h0l-8.776,7.91a.984.984,0,0,0-.247,1.236,1.251,1.251,0,0,0,.865.494h.371l5.315-1.978a.977.977,0,0,0-.618-1.854l-.371.124,3.09-2.843V55.465a1.122,1.122,0,0,1,.371-.865Zm0,0" transform="translate(-311.996 -48.914)" fill="#6ba43a"/>
          <path id="Path_13044" data-name="Path 13044" d="M353.1,54.5c.124,0,.124.124.247.124a.383.383,0,0,1-.247-.124Zm0,0" transform="translate(-302.295 -48.938)" fill="#6ba43a"/>
          <path id="Path_13045" data-name="Path 13045" d="M320.936,56.551v.742L337,51.978l20.147,4.7L342.69,61.742h0c.124,0,.247-.124.371-.124a1.063,1.063,0,0,1,.989.989v.742l16.315-5.686-.371-.742a.994.994,0,0,1,.371-1.36,1.568,1.568,0,0,1,.742-.124h0L337.128,50h-.494L319.7,55.562h0c.124,0,.247-.124.371-.124a1.215,1.215,0,0,1,.865,1.112Zm0,0" transform="translate(-310.178 -50)" fill="#6ba43a"/>
        </g>
        <path id="Path_13046" data-name="Path 13046" d="M337.9,59.724a.121.121,0,0,0,.124-.124.121.121,0,0,1-.124.124Zm0,0" transform="translate(-305.883 -47.734)" fill="#6ba43a"/>
        <path id="Path_13047" data-name="Path 13047" d="M337.7,60.347v0Zm0,0" transform="translate(-305.93 -47.616)" fill="#6ba43a"/>
        <path id="Path_13048" data-name="Path 13048" d="M337.824,59.8l-.124.124c.124,0,.124,0,.124-.124Zm0,0" transform="translate(-305.93 -47.687)" fill="#6ba43a"/>
        <path id="Path_13049" data-name="Path 13049" d="M321.1,56.23v-.742a.975.975,0,0,0-.989-.989.454.454,0,0,0-.371.124c-.124,0-.124.124-.247.124a1.251,1.251,0,0,0-.494.865v2.225l1.483-1.36Zm0,0" transform="translate(-310.343 -48.938)" fill="#6ba43a"/>
        <path id="Path_13050" data-name="Path 13050" d="M338.689,59.5a.454.454,0,0,0-.371.124c-.124,0-.124.124-.247.124a.121.121,0,0,0-.124.124l-.124.124-.124.124v.742a.923.923,0,0,0,1.236.618l.618-.247v-.742a.823.823,0,0,0-.865-.989Zm0,0" transform="translate(-305.93 -47.758)" fill="#6ba43a"/>
        <path id="Path_13051" data-name="Path 13051" d="M352.594,54.624a.994.994,0,0,0-.371,1.36l.371.742.742-.247a.851.851,0,0,0,.618-.989c0-.247-.124-.371-.124-.494s-.124-.124-.124-.247l-.124-.124c-.124,0-.124-.124-.247-.124h-.124c-.124,0-.494,0-.618.124Zm0,0" transform="translate(-302.531 -48.938)" fill="#6ba43a"/>
      </g>
    </g>
    <g id="Icon" transform="translate(88.608 50.922)">
      <g id="Path_13052" data-name="Path 13052" fill="#fff">
        <path d="M 16.7011604309082 32.90232086181641 C 12.37367057800293 32.90232086181641 8.305200576782227 31.21710968017578 5.245210647583008 28.1571102142334 C 2.185210466384888 25.09712028503418 0.5000004172325134 21.02865028381348 0.5000004172325134 16.7011604309082 C 0.5000004172325134 12.37367057800293 2.185210466384888 8.305200576782227 5.245210647583008 5.245210647583008 C 8.305200576782227 2.185210466384888 12.37367057800293 0.5000004172325134 16.7011604309082 0.5000004172325134 C 21.02865028381348 0.5000004172325134 25.09712028503418 2.185210466384888 28.1571102142334 5.245210647583008 C 31.21710968017578 8.305200576782227 32.90232086181641 12.37367057800293 32.90232086181641 16.7011604309082 C 32.90232086181641 21.02865028381348 31.21710968017578 25.09712028503418 28.1571102142334 28.1571102142334 C 25.09712028503418 31.21710968017578 21.02865028381348 32.90232086181641 16.7011604309082 32.90232086181641 Z" stroke="none"/>
        <path d="M 16.7011604309082 1 C 12.50723075866699 1 8.564319610595703 2.633211135864258 5.598760604858398 5.598760604858398 C 2.633211135864258 8.564319610595703 1 12.50723075866699 1 16.7011604309082 C 1 20.89509010314941 2.633211135864258 24.8380012512207 5.598760604858398 27.80356025695801 C 8.564319610595703 30.76910972595215 12.50723075866699 32.40232086181641 16.7011604309082 32.40232086181641 C 20.89509010314941 32.40232086181641 24.8380012512207 30.76910972595215 27.80356025695801 27.80356025695801 C 30.76910972595215 24.8380012512207 32.40232086181641 20.89509010314941 32.40232086181641 16.7011604309082 C 32.40232086181641 12.50723075866699 30.76910972595215 8.564319610595703 27.80356025695801 5.598760604858398 C 24.8380012512207 2.633211135864258 20.89509010314941 1 16.7011604309082 1 M 16.7011604309082 0 C 25.92496109008789 0 33.40232086181641 7.477359771728516 33.40232086181641 16.7011604309082 C 33.40232086181641 25.92496109008789 25.92496109008789 33.40232086181641 16.7011604309082 33.40232086181641 C 7.477359771728516 33.40232086181641 0 25.92496109008789 0 16.7011604309082 C 0 7.477359771728516 7.477359771728516 0 16.7011604309082 0 Z" stroke="none" fill="#5e934c"/>
      </g>
      <g id="icon-2" data-name="icon" transform="translate(8.625 9.625)">
        <line id="Line_92" data-name="Line 92" x1="15.714" y2="15.714" transform="translate(0)" fill="none" stroke="#5e934c" stroke-width="2"/>
        <line id="Line_93" data-name="Line 93" x2="15.714" y2="15.714" transform="translate(0)" fill="none" stroke="#5e934c" stroke-width="2"/>
      </g>
    </g>
  </g>
</svg>
